<svg width="31" height="38" viewBox="0 0 31 38" fill="none" xmlns="http://www.w3.org/2000/svg">
<path d="M18.4419 19.7482C19.73 19.7482 20.7739 20.7927 20.7739 22.0802C20.7739 23.3664 19.7312 24.41 18.4419 24.41C17.1536 24.41 16.11 23.3664 16.11 22.0802C16.11 20.7924 17.1545 19.7482 18.4419 19.7482Z" fill="white"/>
<path d="M6.4561 19.7482C7.74354 19.7482 8.79021 20.7927 8.78808 22.0802C8.78808 23.3664 7.74354 24.41 6.4561 24.41C5.16653 24.41 4.12442 23.3664 4.12442 22.0802C4.12442 20.7924 5.16866 19.7482 6.4561 19.7482Z" fill="white"/>
<path d="M20.0358 18.6191C20.5158 18.6191 20.9532 18.3358 21.1481 17.8937L24.3547 10.6251L26.2316 8.23901H27.8641C28.5356 8.23901 29.0801 7.69454 29.0801 7.02301C29.0801 6.35147 28.5356 5.80701 27.8641 5.80701H25.6412C25.2682 5.80701 24.9159 5.97785 24.6855 6.27121L22.3538 9.2419C22.2905 9.32185 22.238 9.40971 22.1966 9.50274L19.2615 16.1564L6.21198 15.6651L4.65277 10.9428L5.59638 10.9808C6.26214 11.003 6.83336 10.4856 6.86041 9.81464C6.88747 9.14341 6.3652 8.57766 5.69427 8.55061L2.99627 8.44208C2.60137 8.42506 2.21651 8.60654 1.97635 8.92513C1.7365 9.24373 1.66749 9.6596 1.79273 10.0384L4.16758 17.2298C4.32658 17.7123 4.76889 18.0448 5.27627 18.0637L19.9947 18.6179C20.0051 18.6188 20.0203 18.6191 20.0358 18.6191Z" fill="white"/>
</svg>
